<svg xmlns="http://www.w3.org/2000/svg" width="207.45" height="35" viewBox="0 0 207.45 35"><rect class="svg__rect" x="0" y="0" width="207.45" height="35" fill="#FE6A00"/><rect class="svg__rect" x="207.45" y="0" width="0" height="35" fill="#C13B3A"/><path class="svg__text" d="M15.00 22L13.46 22L16.68 13.47L18.01 13.47L21.24 22L19.69 22L18.99 20.01L15.69 20.01L15.00 22ZM17.34 15.28L16.10 18.82L18.58 18.82L17.34 15.28ZM25.06 19.16L25.06 19.16L25.06 13.47L26.53 13.47L26.53 19.18Q26.53 20.03 26.97 20.48Q27.40 20.93 28.24 20.93L28.24 20.93Q29.96 20.93 29.96 19.13L29.96 19.13L29.96 13.47L31.43 13.47L31.43 19.17Q31.43 20.53 30.56 21.32Q29.69 22.12 28.24 22.12L28.24 22.12Q26.78 22.12 25.92 21.33Q25.06 20.55 25.06 19.16ZM37.68 14.66L35.05 14.66L35.05 13.47L41.81 13.47L41.81 14.66L39.15 14.66L39.15 22L37.68 22L37.68 14.66ZM45.30 18.00L45.30 18.00L45.30 17.52Q45.30 16.28 45.74 15.32Q46.19 14.37 46.99 13.86Q47.80 13.35 48.84 13.35Q49.88 13.35 50.69 13.85Q51.49 14.35 51.93 15.29Q52.37 16.23 52.38 17.48L52.38 17.48L52.38 17.96Q52.38 19.21 51.95 20.16Q51.51 21.10 50.71 21.61Q49.90 22.12 48.85 22.12L48.85 22.12Q47.81 22.12 47.00 21.61Q46.19 21.10 45.75 20.17Q45.31 19.23 45.30 18.00ZM46.78 17.46L46.78 17.96Q46.78 19.36 47.33 20.13Q47.88 20.90 48.85 20.90L48.85 20.90Q49.84 20.90 50.37 20.15Q50.90 19.40 50.90 17.96L50.90 17.96L50.90 17.51Q50.90 16.09 50.36 15.34Q49.82 14.58 48.84 14.58L48.84 14.58Q47.88 14.58 47.34 15.33Q46.80 16.09 46.78 17.46L46.78 17.46ZM59.30 22L56.84 22L56.84 13.47L59.36 13.47Q60.49 13.47 61.37 13.97Q62.25 14.48 62.73 15.40Q63.21 16.33 63.21 17.52L63.21 17.52L63.21 17.95Q63.21 19.16 62.72 20.08Q62.24 21.00 61.35 21.50Q60.45 22 59.30 22L59.30 22ZM58.33 14.66L58.33 20.82L59.29 20.82Q60.46 20.82 61.08 20.09Q61.71 19.36 61.72 17.99L61.72 17.99L61.72 17.52Q61.72 16.13 61.12 15.40Q60.51 14.66 59.36 14.66L59.36 14.66L58.33 14.66ZM73.25 22L67.67 22L67.67 13.47L73.21 13.47L73.21 14.66L69.15 14.66L69.15 17.02L72.66 17.02L72.66 18.19L69.15 18.19L69.15 20.82L73.25 20.82L73.25 22ZM77.01 19.42L77.01 19.42L78.49 19.42Q78.49 20.15 78.97 20.55Q79.46 20.95 80.35 20.95L80.35 20.95Q81.13 20.95 81.52 20.63Q81.90 20.32 81.90 19.80L81.90 19.80Q81.90 19.24 81.51 18.94Q81.11 18.63 80.08 18.32Q79.05 18.01 78.44 17.63L78.44 17.63Q77.28 16.90 77.28 15.72L77.28 15.72Q77.28 14.69 78.12 14.02Q78.96 13.35 80.30 13.35L80.30 13.35Q81.19 13.35 81.89 13.68Q82.58 14.01 82.98 14.61Q83.38 15.22 83.38 15.96L83.38 15.96L81.90 15.96Q81.90 15.29 81.49 14.91Q81.07 14.54 80.29 14.54L80.29 14.54Q79.56 14.54 79.16 14.85Q78.76 15.16 78.76 15.71L78.76 15.71Q78.76 16.18 79.19 16.50Q79.63 16.81 80.62 17.10Q81.62 17.40 82.22 17.78Q82.82 18.16 83.11 18.65Q83.39 19.13 83.39 19.79L83.39 19.79Q83.39 20.86 82.57 21.49Q81.75 22.12 80.35 22.12L80.35 22.12Q79.43 22.12 78.65 21.77Q77.87 21.43 77.44 20.83Q77.01 20.22 77.01 19.42ZM89.16 22L87.68 22L87.68 13.47L89.16 13.47L89.16 17.47L89.98 16.46L92.47 13.47L94.27 13.47L91.10 17.25L94.45 22L92.69 22L90.13 18.31L89.16 19.34L89.16 22ZM105.69 22L104.21 22L104.21 13.47L109.63 13.47L109.63 14.66L105.69 14.66L105.69 17.20L109.12 17.20L109.12 18.38L105.69 18.38L105.69 22ZM113.65 19.16L113.65 19.16L113.65 13.47L115.13 13.47L115.13 19.18Q115.13 20.03 115.56 20.48Q115.99 20.93 116.84 20.93L116.84 20.93Q118.55 20.93 118.55 19.13L118.55 19.13L118.55 13.47L120.03 13.47L120.03 19.17Q120.03 20.53 119.16 21.32Q118.29 22.12 116.84 22.12L116.84 22.12Q115.37 22.12 114.51 21.33Q113.65 20.55 113.65 19.16ZM124.16 19.42L124.16 19.42L125.64 19.42Q125.64 20.15 126.13 20.55Q126.61 20.95 127.50 20.95L127.50 20.95Q128.28 20.95 128.67 20.63Q129.06 20.32 129.06 19.80L129.06 19.80Q129.06 19.24 128.66 18.94Q128.26 18.63 127.23 18.32Q126.20 18.01 125.59 17.63L125.59 17.63Q124.43 16.90 124.43 15.72L124.43 15.72Q124.43 14.69 125.27 14.02Q126.11 13.35 127.45 13.35L127.45 13.35Q128.34 13.35 129.04 13.68Q129.73 14.01 130.13 14.61Q130.53 15.22 130.53 15.96L130.53 15.96L129.06 15.96Q129.06 15.29 128.64 14.91Q128.22 14.54 127.44 14.54L127.44 14.54Q126.71 14.54 126.31 14.85Q125.91 15.16 125.91 15.71L125.91 15.71Q125.91 16.18 126.34 16.50Q126.78 16.81 127.77 17.10Q128.77 17.40 129.37 17.78Q129.97 18.16 130.26 18.65Q130.54 19.13 130.54 19.79L130.54 19.79Q130.54 20.86 129.72 21.49Q128.90 22.12 127.50 22.12L127.50 22.12Q126.58 22.12 125.80 21.77Q125.02 21.43 124.59 20.83Q124.16 20.22 124.16 19.42ZM136.39 22L134.91 22L134.91 13.47L136.39 13.47L136.39 22ZM140.93 18.00L140.93 18.00L140.93 17.52Q140.93 16.28 141.37 15.32Q141.82 14.37 142.62 13.86Q143.43 13.35 144.47 13.35Q145.51 13.35 146.32 13.85Q147.13 14.35 147.56 15.29Q148.00 16.23 148.01 17.48L148.01 17.48L148.01 17.96Q148.01 19.21 147.58 20.16Q147.14 21.10 146.34 21.61Q145.53 22.12 144.48 22.12L144.48 22.12Q143.45 22.12 142.63 21.61Q141.82 21.10 141.38 20.17Q140.94 19.23 140.93 18.00ZM142.41 17.46L142.41 17.96Q142.41 19.36 142.96 20.13Q143.51 20.90 144.48 20.90L144.48 20.90Q145.47 20.90 146.00 20.15Q146.53 19.40 146.53 17.96L146.53 17.96L146.53 17.51Q146.53 16.09 145.99 15.34Q145.46 14.58 144.47 14.58L144.47 14.58Q143.51 14.58 142.97 15.33Q142.43 16.09 142.41 17.46L142.41 17.46ZM153.96 22L152.47 22L152.47 13.47L153.96 13.47L157.77 19.54L157.77 13.47L159.24 13.47L159.24 22L157.76 22L153.96 15.95L153.96 22ZM169.56 19.71L169.56 19.71L170.98 19.71Q170.98 20.28 171.36 20.63Q171.73 20.98 172.37 20.98L172.37 20.98Q173.04 20.98 173.42 20.63Q173.80 20.28 173.80 19.61L173.80 19.61Q173.80 18.94 173.40 18.57Q173.00 18.21 172.22 18.21L172.22 18.21L171.38 18.21L171.38 17.08L172.24 17.08Q172.90 17.08 173.28 16.74Q173.67 16.41 173.67 15.78L173.67 15.78Q173.67 15.17 173.35 14.83Q173.03 14.49 172.37 14.49L172.37 14.49Q171.80 14.49 171.43 14.83Q171.06 15.16 171.06 15.69L171.06 15.69L169.64 15.69Q169.64 15.03 169.99 14.49Q170.33 13.96 170.96 13.65Q171.58 13.35 172.36 13.35L172.36 13.35Q173.63 13.35 174.36 13.99Q175.09 14.63 175.09 15.78L175.09 15.78Q175.09 16.35 174.73 16.86Q174.36 17.37 173.78 17.62L173.78 17.62Q174.48 17.86 174.85 18.38Q175.22 18.89 175.22 19.61L175.22 19.61Q175.22 20.76 174.43 21.44Q173.64 22.12 172.36 22.12L172.36 22.12Q171.13 22.12 170.34 21.46Q169.56 20.80 169.56 19.71ZM179.59 18.70L179.59 18.70L179.59 18.21Q179.59 15.97 180.68 14.70Q181.77 13.43 183.82 13.43L183.82 13.43L183.97 13.43L183.97 14.61L183.79 14.61Q182.60 14.62 181.88 15.26Q181.17 15.90 181.03 17.07L181.03 17.07Q181.72 16.35 182.79 16.35L182.79 16.35Q183.92 16.35 184.57 17.15Q185.22 17.95 185.22 19.21L185.22 19.21Q185.22 20.51 184.46 21.31Q183.69 22.12 182.45 22.12L182.45 22.12Q181.17 22.12 180.38 21.17Q179.59 20.23 179.59 18.70ZM181.01 18.47L181.01 18.90Q181.01 19.85 181.41 20.41Q181.81 20.97 182.44 20.97Q183.07 20.97 183.44 20.49Q183.81 20.02 183.81 19.25Q183.81 18.47 183.44 17.99Q183.06 17.50 182.44 17.50L182.44 17.50Q181.97 17.50 181.58 17.76Q181.19 18.03 181.01 18.47L181.01 18.47ZM189.32 18.51L189.32 18.51L189.32 17.03Q189.32 15.19 190.01 14.27Q190.70 13.35 192.11 13.35L192.11 13.35Q193.51 13.35 194.20 14.25Q194.89 15.14 194.91 16.93L194.91 16.93L194.91 18.41Q194.91 20.25 194.22 21.18Q193.53 22.12 192.13 22.12L192.13 22.12Q190.74 22.12 190.04 21.21Q189.34 20.29 189.32 18.51ZM190.74 16.68L190.74 18.61Q190.74 19.81 191.08 20.39Q191.41 20.98 192.13 20.98L192.13 20.98Q192.81 20.98 193.14 20.44Q193.47 19.90 193.48 18.74L193.48 18.74L193.48 16.81Q193.48 15.61 193.16 15.05Q192.83 14.49 192.11 14.49L192.11 14.49Q191.42 14.49 191.09 15.02Q190.76 15.55 190.74 16.68L190.74 16.68Z" fill="#FFFFFF"/><path class="svg__text" d="" fill="#FFFFFF" x="220.45"/></svg>