<svg xmlns="http://www.w3.org/2000/svg" width="97.17999999999999" height="35" viewBox="0 0 97.17999999999999 35"><rect class="svg__rect" x="0" y="0" width="97.17999999999999" height="35" fill="#1E1390"/><rect class="svg__rect" x="97.17999999999999" y="0" width="0" height="35" fill="#C13B3A"/><path class="svg__text" d="M13.95 18.19L13.95 18.19L13.95 17.39Q13.95 16.19 14.38 15.27Q14.80 14.35 15.60 13.85Q16.40 13.35 17.45 13.35L17.45 13.35Q18.86 13.35 19.73 14.12Q20.59 14.89 20.73 16.29L20.73 16.29L19.25 16.29Q19.14 15.37 18.71 14.96Q18.28 14.55 17.45 14.55L17.45 14.55Q16.48 14.55 15.97 15.26Q15.45 15.96 15.44 17.33L15.44 17.33L15.44 18.09Q15.44 19.47 15.93 20.20Q16.43 20.92 17.38 20.92L17.38 20.92Q18.25 20.92 18.69 20.53Q19.13 20.14 19.25 19.22L19.25 19.22L20.73 19.22Q20.60 20.59 19.72 21.35Q18.84 22.12 17.38 22.12L17.38 22.12Q16.36 22.12 15.59 21.63Q14.81 21.15 14.39 20.26Q13.97 19.37 13.95 18.19ZM25.82 22L24.28 22L27.50 13.47L28.83 13.47L32.06 22L30.51 22L29.81 20.01L26.51 20.01L25.82 22ZM28.16 15.28L26.93 18.82L29.40 18.82L28.16 15.28ZM37.70 14.66L35.06 14.66L35.06 13.47L41.83 13.47L41.83 14.66L39.17 14.66L39.17 22L37.70 22L37.70 14.66ZM47.15 22L45.67 22L45.67 13.47L47.15 13.47L47.15 22ZM52.74 22L51.20 22L54.42 13.47L55.75 13.47L58.98 22L57.43 22L56.73 20.01L53.43 20.01L52.74 22ZM55.08 15.28L53.84 18.82L56.32 18.82L55.08 15.28ZM71.21 22L68.15 13.47L69.77 13.47L71.91 20.14L74.08 13.47L75.71 13.47L72.64 22L71.21 22ZM79.55 19.70L79.55 19.70L80.93 19.70Q81.01 20.32 81.37 20.65Q81.73 20.98 82.32 20.98L82.32 20.98Q82.98 20.98 83.34 20.51Q83.71 20.04 83.71 19.23L83.71 19.23Q83.71 18.46 83.31 18.00Q82.90 17.55 82.19 17.55L82.19 17.55Q81.81 17.55 81.54 17.65Q81.27 17.75 80.95 18.05L80.95 18.05L79.81 17.77L80.28 13.47L84.86 13.47L84.86 14.70L81.46 14.70L81.22 16.74Q81.82 16.40 82.56 16.40L82.56 16.40Q83.78 16.40 84.46 17.18Q85.13 17.96 85.13 19.28L85.13 19.28Q85.13 20.58 84.38 21.35Q83.63 22.12 82.33 22.12L82.33 22.12Q81.15 22.12 80.38 21.45Q79.61 20.79 79.55 19.70Z" fill="#FFFFFF"/><path class="svg__text" d="" fill="#FFFFFF" x="110.17999999999999"/></svg>