<svg version="1.1" id="Layer_1" xmlns="http://www.w3.org/2000/svg" xmlns:xlink="http://www.w3.org/1999/xlink" x="0px" y="0px"
	 width="100%" viewBox="0 0 2048 2048" enable-background="new 0 0 2048 2048" xml:space="preserve">
<path fill="#7289DA" opacity="1.000000" stroke="none" 
	d="
M1.000034,1780.000000 
	C1.000000,1276.965088 1.000000,773.930176 1.347417,270.769165 
	C2.129531,269.465454 2.761478,268.321106 2.966617,267.104797 
	C4.213628,259.711090 4.882528,252.183395 6.658037,244.923859 
	C9.344285,233.940536 12.389361,223.008942 16.001085,212.297852 
	C19.852993,200.874435 24.380196,189.667297 28.941357,178.500031 
	C30.815638,173.911148 33.475945,169.632233 35.907337,165.284241 
	C41.362312,155.529266 46.520405,145.578888 52.516998,136.165222 
	C57.540592,128.279022 63.092861,120.608253 69.283806,113.614693 
	C79.224205,102.385582 89.634155,91.538887 100.332657,81.026192 
	C107.079094,74.396927 114.605835,68.538094 121.985229,62.584900 
	C126.963806,58.568539 132.064758,54.609425 137.520416,51.299610 
	C147.212921,45.419373 157.069229,39.767643 167.133392,34.553795 
	C176.139816,29.887913 185.292328,25.325041 194.790985,21.833906 
	C206.442917,17.551353 218.409714,13.989738 230.446960,10.928788 
	C242.853973,7.773806 255.514954,5.621564 268.041992,2.924592 
	C268.797760,2.761883 269.351990,1.663176 270.000000,0.999999 
	C773.034912,1.000000 1276.069824,1.000000 1779.231079,1.347562 
	C1780.534668,2.129667 1781.678833,2.761502 1782.894775,2.966397 
	C1790.286499,4.211940 1797.807983,4.892859 1805.070923,6.650876 
	C1815.897583,9.271489 1826.609985,12.423793 1837.248291,15.742764 
	C1844.770508,18.089558 1852.225952,20.769665 1859.464355,23.876173 
	C1867.898315,27.495726 1876.189697,31.501444 1884.312134,35.778248 
	C1894.201050,40.985195 1904.104492,46.248154 1913.523682,52.238441 
	C1921.549316,57.342579 1929.333008,63.020046 1936.446411,69.321358 
	C1947.666626,79.260612 1958.485596,89.689552 1968.989014,100.387794 
	C1975.615601,107.137276 1981.493774,114.645119 1987.449951,122.020836 
	C1991.467407,126.995636 1995.413208,132.104340 1998.721802,137.559052 
	C2004.599487,147.249039 2010.253784,157.099640 2015.466431,167.160324 
	C2020.131348,176.163834 2024.691528,185.314545 2028.180176,194.810974 
	C2032.459839,206.460434 2036.017334,218.424957 2039.075928,230.459396 
	C2042.228394,242.863159 2044.379883,255.520340 2047.075317,268.043823 
	C2047.237915,268.798981 2048.336914,269.352600 2049.000000,270.000000 
	C2049.000000,773.034912 2049.000000,1276.069824 2048.652344,1779.230957 
	C2047.870361,1780.534424 2047.238647,1781.678589 2047.033691,1782.894653 
	C2045.788208,1790.286621 2045.106812,1797.807861 2043.348877,1805.071045 
	C2040.728271,1815.897705 2037.560181,1826.604736 2034.262329,1837.250366 
	C2031.978760,1844.622070 2029.428345,1851.952759 2026.376465,1859.034302 
	C2022.612671,1867.767822 2018.442627,1876.348999 2014.011719,1884.766357 
	C2008.883301,1894.508545 2003.683838,1904.258911 1997.760498,1913.523071 
	C1992.723999,1921.399902 1987.073120,1928.996704 1980.877686,1935.994507 
	C1970.838867,1947.333984 1960.386353,1958.339600 1949.612671,1968.984619 
	C1942.885986,1975.630981 1935.358032,1981.491211 1927.982178,1987.447266 
	C1923.008911,1991.463257 1917.903320,1995.409180 1912.450562,1998.716675 
	C1902.757812,2004.596191 1892.904053,2010.252075 1882.840332,2015.466431 
	C1873.836792,2020.131348 1864.685791,2024.690918 1855.189331,2028.179688 
	C1843.539917,2032.459351 1831.575439,2036.017090 1819.540894,2039.075928 
	C1807.137085,2042.228516 1794.479736,2044.379883 1781.956055,2047.075317 
	C1781.201050,2047.237793 1780.647339,2048.336914 1780.000000,2049.000000 
	C1276.965088,2049.000000 773.930176,2049.000000 270.769073,2048.652344 
	C269.465698,2047.870239 268.321808,2047.238281 267.105896,2047.033325 
	C259.713928,2045.787964 252.192444,2045.107178 244.929352,2043.349243 
	C234.102676,2040.728638 223.390457,2037.575806 212.752060,2034.256836 
	C205.229721,2031.910034 197.774353,2029.229736 190.535812,2026.123291 
	C182.101868,2022.504028 173.810028,2018.498901 165.687439,2014.222656 
	C155.801010,2009.017456 145.895981,2003.762085 136.485321,1997.765259 
	C128.599945,1992.740234 121.009277,1987.075073 114.009460,1980.878540 
	C102.669594,1970.840332 91.661964,1960.390137 81.016846,1949.617188 
	C74.370514,1942.891235 68.512222,1935.362061 62.556759,1927.986206 
	C58.539639,1923.010986 54.591541,1917.904053 51.282722,1912.449463 
	C45.403149,1902.756958 39.747490,1892.903442 34.533279,1882.839844 
	C29.868343,1873.836426 25.308661,1864.685547 21.820063,1855.189209 
	C17.540480,1843.539673 13.982821,1831.575195 10.924117,1819.540771 
	C7.771510,1807.136963 5.620051,1794.479858 2.924625,1781.956177 
	C2.762098,1781.201050 1.663247,1780.647339 1.000034,1780.000000 
M1107.538330,550.817139 
	C1106.692871,550.882751 1105.847290,550.948303 1104.104736,550.912476 
	C1098.399780,550.635925 1092.694946,550.359436 1086.331177,549.743774 
	C1083.879028,549.769226 1081.426880,549.794678 1078.109131,549.751343 
	C1071.062744,549.573364 1064.016357,549.395325 1056.249146,548.849060 
	C1047.834106,548.908142 1039.419189,548.967224 1030.066406,549.026489 
	C1015.049683,549.302979 1000.033020,549.579468 984.414978,549.612244 
	C982.946472,549.760315 981.478027,549.908325 979.081116,550.055420 
	C952.877136,551.799866 926.621277,552.985840 900.480469,555.411072 
	C853.665405,559.754333 807.230652,566.866821 761.306946,577.051208 
	C673.239258,596.581909 588.733215,625.329834 511.884125,673.806763 
	C511.100189,674.301208 510.083527,674.426758 509.175507,674.724548 
	C508.967041,674.232300 508.758545,673.740051 508.550049,673.247803 
	C603.393921,593.814514 714.538818,546.932739 832.149292,512.994202 
	C831.809326,512.008118 831.750854,511.468506 831.472839,511.090057 
	C828.908264,507.598083 826.128479,504.249298 823.770813,500.625000 
	C821.913757,497.770264 819.708679,496.871399 816.313416,497.036865 
	C782.452515,498.686829 749.210144,504.445068 716.347107,512.382202 
	C625.554199,534.310791 542.242493,572.887695 465.563690,625.997375 
	C462.699280,627.981323 460.066254,630.910217 458.446564,633.988586 
	C435.688019,677.243408 416.139374,721.964233 398.245087,767.414795 
	C354.406738,878.761658 321.626465,993.258728 300.924530,1111.151245 
	C292.605072,1158.528564 285.949219,1206.141968 282.226532,1254.129639 
	C280.839417,1272.010376 278.935455,1289.868774 278.181274,1307.775879 
	C277.292389,1328.880615 277.493103,1350.029175 276.988281,1371.153198 
	C276.882660,1375.570801 278.106842,1379.149292 280.542450,1382.728516 
	C302.396118,1414.843628 329.134186,1442.383667 359.530823,1466.358398 
	C447.754425,1535.943848 549.496155,1566.120361 660.513123,1568.781006 
	C663.045898,1568.841919 666.330322,1567.284912 668.090698,1565.391602 
	C696.794189,1534.519653 725.310608,1503.473755 753.851440,1472.450684 
	C754.696960,1471.531738 755.347778,1470.433716 756.400085,1468.994141 
	C754.230469,1468.225952 752.556702,1467.587036 750.854187,1467.037231 
	C717.448669,1456.250732 685.314514,1442.547607 654.944641,1424.882202 
	C611.583130,1399.659790 573.177490,1368.656738 543.008179,1328.156250 
	C540.486877,1324.771484 538.242859,1321.180054 535.870056,1317.684692 
	C536.210938,1317.382324 536.551819,1317.079956 536.892700,1316.777588 
	C538.219177,1317.852661 539.516052,1318.966797 540.876648,1319.996582 
	C555.346863,1330.949097 569.294373,1342.693726 584.399841,1352.687256 
	C640.604553,1389.871826 702.675354,1413.643921 767.479431,1430.765137 
	C817.608398,1444.009277 868.536682,1452.992920 920.174011,1457.655640 
	C944.790222,1459.878418 969.460266,1462.070312 994.148621,1462.772583 
	C1019.742615,1463.500488 1045.401489,1462.832153 1071.009033,1462.035034 
	C1147.389771,1459.657227 1222.701538,1449.388184 1296.639648,1429.872314 
	C1351.946289,1415.274048 1405.220459,1395.439087 1455.040527,1366.949707 
	C1479.859863,1352.756958 1502.965454,1336.185669 1524.872314,1317.829224 
	C1525.004761,1317.971191 1525.137329,1318.113281 1525.094727,1318.920410 
	C1520.350464,1325.350586 1515.912842,1332.035767 1510.814087,1338.171265 
	C1461.844238,1397.098022 1399.738037,1436.495117 1327.627319,1460.899902 
	C1319.155518,1463.767212 1310.556519,1466.258667 1301.598999,1469.054565 
	C1302.626953,1470.563599 1303.264771,1471.699097 1304.087769,1472.679077 
	C1330.232544,1503.812012 1356.361084,1534.958740 1382.653687,1565.966553 
	C1384.015747,1567.572998 1386.799683,1568.782593 1388.925659,1568.788574 
	C1397.038574,1568.811890 1405.185547,1568.614258 1413.260620,1567.863892 
	C1432.593750,1566.067749 1452.039673,1564.799805 1471.164551,1561.647095 
	C1489.749390,1558.583496 1508.147827,1554.018433 1526.354614,1549.100098 
	C1584.968506,1533.267212 1638.436157,1506.826904 1686.426636,1469.566895 
	C1718.477417,1444.682495 1746.839111,1416.187256 1769.492798,1382.349731 
	C1771.473267,1379.391357 1772.814453,1375.327881 1772.764160,1371.801880 
	C1772.517944,1354.553955 1771.769287,1337.311279 1771.060791,1320.072510 
	C1770.475220,1305.820679 1769.893677,1291.563965 1768.956787,1277.332642 
	C1767.735840,1258.787109 1767.046021,1240.145996 1764.569458,1221.755737 
	C1758.702393,1178.187134 1753.120361,1134.523193 1745.260254,1091.291138 
	C1726.708008,989.252991 1698.131104,889.903198 1661.560791,792.865356 
	C1641.099243,738.571655 1618.407715,685.243103 1591.480469,633.795044 
	C1590.145020,631.243530 1588.229614,628.635315 1585.912964,627.011353 
	C1550.908813,602.473145 1514.130005,580.928345 1475.430298,562.762451 
	C1425.537842,539.342590 1373.972656,521.031616 1319.883179,509.486420 
	C1291.174194,503.358582 1262.353638,499.472382 1233.211426,497.137543 
	C1231.607910,497.009094 1229.529419,496.856598 1228.404297,497.696411 
	C1222.163330,502.355103 1216.148926,507.317596 1209.259644,512.811951 
	C1211.926758,513.662903 1213.588379,514.265869 1215.288818,514.724976 
	C1263.461182,527.731873 1310.459473,544.122437 1356.273560,563.874756 
	C1415.333496,589.337891 1472.054077,619.108582 1524.517334,656.525757 
	C1533.554810,662.971436 1541.766602,670.574341 1550.103027,677.902771 
	C1550.103027,677.902771 1549.846924,678.163757 1549.181641,677.998230 
	C1524.299072,659.928223 1497.785278,644.655518 1469.933228,631.656189 
	C1415.303711,606.159058 1357.972778,588.994507 1299.250488,576.048035 
	C1260.743774,567.558472 1221.783813,561.819702 1182.660889,557.340637 
	C1157.857300,554.500977 1132.887085,553.116699 1107.538330,550.817139 
z"/>
<path fill="#000000" opacity="1.000000" stroke="none" 
	d="
M1780.468628,2049.000000 
	C1780.647339,2048.336914 1781.201050,2047.237793 1781.956055,2047.075317 
	C1794.479736,2044.379883 1807.137085,2042.228516 1819.540894,2039.075928 
	C1831.575439,2036.017090 1843.539917,2032.459351 1855.189331,2028.179688 
	C1864.685791,2024.690918 1873.836792,2020.131348 1882.840332,2015.466431 
	C1892.904053,2010.252075 1902.757812,2004.596191 1912.450562,1998.716675 
	C1917.903320,1995.409180 1923.008911,1991.463257 1927.982178,1987.447266 
	C1935.358032,1981.491211 1942.885986,1975.630981 1949.612671,1968.984619 
	C1960.386353,1958.339600 1970.838867,1947.333984 1980.877686,1935.994507 
	C1987.073120,1928.996704 1992.723999,1921.399902 1997.760498,1913.523071 
	C2003.683838,1904.258911 2008.883301,1894.508545 2014.011719,1884.766357 
	C2018.442627,1876.348999 2022.612671,1867.767822 2026.376465,1859.034302 
	C2029.428345,1851.952759 2031.978760,1844.622070 2034.262329,1837.250366 
	C2037.560181,1826.604736 2040.728271,1815.897705 2043.348877,1805.071045 
	C2045.106812,1797.807861 2045.788208,1790.286621 2047.033691,1782.894653 
	C2047.238647,1781.678589 2047.870361,1780.534424 2048.652344,1779.678467 
	C2049.000000,1869.593750 2049.000000,1959.187500 2049.000000,2049.000000 
	C1959.645874,2049.000000 1870.291504,2049.000000 1780.468628,2049.000000 
z"/>
<path fill="#000000" opacity="1.000000" stroke="none" 
	d="
M269.531342,0.999999 
	C269.351990,1.663176 268.797760,2.761883 268.041992,2.924592 
	C255.514954,5.621564 242.853973,7.773806 230.446960,10.928788 
	C218.409714,13.989738 206.442917,17.551353 194.790985,21.833906 
	C185.292328,25.325041 176.139816,29.887913 167.133392,34.553795 
	C157.069229,39.767643 147.212921,45.419373 137.520416,51.299610 
	C132.064758,54.609425 126.963806,58.568539 121.985229,62.584900 
	C114.605835,68.538094 107.079094,74.396927 100.332657,81.026192 
	C89.634155,91.538887 79.224205,102.385582 69.283806,113.614693 
	C63.092861,120.608253 57.540592,128.279022 52.516998,136.165222 
	C46.520405,145.578888 41.362312,155.529266 35.907337,165.284241 
	C33.475945,169.632233 30.815638,173.911148 28.941357,178.500031 
	C24.380196,189.667297 19.852993,200.874435 16.001085,212.297852 
	C12.389361,223.008942 9.344285,233.940536 6.658037,244.923859 
	C4.882528,252.183395 4.213628,259.711090 2.966617,267.104797 
	C2.761478,268.321106 2.129531,269.465454 1.347417,270.321533 
	C1.000000,180.406296 1.000000,90.812592 1.000000,1.000000 
	C90.354111,1.000000 179.708389,1.000000 269.531342,0.999999 
z"/>
<path fill="#000000" opacity="1.000000" stroke="none" 
	d="
M1.000034,1780.468506 
	C1.663247,1780.647339 2.762098,1781.201050 2.924625,1781.956177 
	C5.620051,1794.479858 7.771510,1807.136963 10.924117,1819.540771 
	C13.982821,1831.575195 17.540480,1843.539673 21.820063,1855.189209 
	C25.308661,1864.685547 29.868343,1873.836426 34.533279,1882.839844 
	C39.747490,1892.903442 45.403149,1902.756958 51.282722,1912.449463 
	C54.591541,1917.904053 58.539639,1923.010986 62.556759,1927.986206 
	C68.512222,1935.362061 74.370514,1942.891235 81.016846,1949.617188 
	C91.661964,1960.390137 102.669594,1970.840332 114.009460,1980.878540 
	C121.009277,1987.075073 128.599945,1992.740234 136.485321,1997.765259 
	C145.895981,2003.762085 155.801010,2009.017456 165.687439,2014.222656 
	C173.810028,2018.498901 182.101868,2022.504028 190.535812,2026.123291 
	C197.774353,2029.229736 205.229721,2031.910034 212.752060,2034.256836 
	C223.390457,2037.575806 234.102676,2040.728638 244.929352,2043.349243 
	C252.192444,2045.107178 259.713928,2045.787964 267.105896,2047.033325 
	C268.321808,2047.238281 269.465698,2047.870239 270.321442,2048.652344 
	C180.406265,2049.000000 90.812531,2049.000000 1.000000,2049.000000 
	C1.000000,1959.645874 1.000000,1870.291504 1.000034,1780.468506 
z"/>
<path fill="#000000" opacity="1.000000" stroke="none" 
	d="
M2049.000000,269.531342 
	C2048.336914,269.352600 2047.237915,268.798981 2047.075317,268.043823 
	C2044.379883,255.520340 2042.228394,242.863159 2039.075928,230.459396 
	C2036.017334,218.424957 2032.459839,206.460434 2028.180176,194.810974 
	C2024.691528,185.314545 2020.131348,176.163834 2015.466431,167.160324 
	C2010.253784,157.099640 2004.599487,147.249039 1998.721802,137.559052 
	C1995.413208,132.104340 1991.467407,126.995636 1987.449951,122.020836 
	C1981.493774,114.645119 1975.615601,107.137276 1968.989014,100.387794 
	C1958.485596,89.689552 1947.666626,79.260612 1936.446411,69.321358 
	C1929.333008,63.020046 1921.549316,57.342579 1913.523682,52.238441 
	C1904.104492,46.248154 1894.201050,40.985195 1884.312134,35.778248 
	C1876.189697,31.501444 1867.898315,27.495726 1859.464355,23.876173 
	C1852.225952,20.769665 1844.770508,18.089558 1837.248291,15.742764 
	C1826.609985,12.423793 1815.897583,9.271489 1805.070923,6.650876 
	C1797.807983,4.892859 1790.286499,4.211940 1782.894775,2.966397 
	C1781.678833,2.761502 1780.534668,2.129667 1779.678711,1.347562 
	C1869.593628,1.000000 1959.187378,1.000000 2049.000000,1.000000 
	C2049.000000,90.354111 2049.000000,179.708389 2049.000000,269.531342 
z"/>
<path fill="#FFFFFF" opacity="1.000000" stroke="none" 
	d="
M1524.490967,1317.388916 
	C1502.965454,1336.185669 1479.859863,1352.756958 1455.040527,1366.949707 
	C1405.220459,1395.439087 1351.946289,1415.274048 1296.639648,1429.872314 
	C1222.701538,1449.388184 1147.389771,1459.657227 1071.009033,1462.035034 
	C1045.401489,1462.832153 1019.742615,1463.500488 994.148621,1462.772583 
	C969.460266,1462.070312 944.790222,1459.878418 920.174011,1457.655640 
	C868.536682,1452.992920 817.608398,1444.009277 767.479431,1430.765137 
	C702.675354,1413.643921 640.604553,1389.871826 584.399841,1352.687256 
	C569.294373,1342.693726 555.346863,1330.949097 540.876648,1319.996582 
	C539.516052,1318.966797 538.219177,1317.852661 536.892700,1316.777588 
	C536.551819,1317.079956 536.210938,1317.382324 535.870056,1317.684692 
	C538.242859,1321.180054 540.486877,1324.771484 543.008179,1328.156250 
	C573.177490,1368.656738 611.583130,1399.659790 654.944641,1424.882202 
	C685.314514,1442.547607 717.448669,1456.250732 750.854187,1467.037231 
	C752.556702,1467.587036 754.230469,1468.225952 756.400085,1468.994141 
	C755.347778,1470.433716 754.696960,1471.531738 753.851440,1472.450684 
	C725.310608,1503.473755 696.794189,1534.519653 668.090698,1565.391602 
	C666.330322,1567.284912 663.045898,1568.841919 660.513123,1568.781006 
	C549.496155,1566.120361 447.754425,1535.943848 359.530823,1466.358398 
	C329.134186,1442.383667 302.396118,1414.843628 280.542450,1382.728516 
	C278.106842,1379.149292 276.882660,1375.570801 276.988281,1371.153198 
	C277.493103,1350.029175 277.292389,1328.880615 278.181274,1307.775879 
	C278.935455,1289.868774 280.839417,1272.010376 282.226532,1254.129639 
	C285.949219,1206.141968 292.605072,1158.528564 300.924530,1111.151245 
	C321.626465,993.258728 354.406738,878.761658 398.245087,767.414795 
	C416.139374,721.964233 435.688019,677.243408 458.446564,633.988586 
	C460.066254,630.910217 462.699280,627.981323 465.563690,625.997375 
	C542.242493,572.887695 625.554199,534.310791 716.347107,512.382202 
	C749.210144,504.445068 782.452515,498.686829 816.313416,497.036865 
	C819.708679,496.871399 821.913757,497.770264 823.770813,500.625000 
	C826.128479,504.249298 828.908264,507.598083 831.472839,511.090057 
	C831.750854,511.468506 831.809326,512.008118 832.149292,512.994202 
	C714.538818,546.932739 603.393921,593.814514 508.550049,673.247803 
	C508.758545,673.740051 508.967041,674.232300 509.175507,674.724548 
	C510.083527,674.426758 511.100189,674.301208 511.884125,673.806763 
	C588.733215,625.329834 673.239258,596.581909 761.306946,577.051208 
	C807.230652,566.866821 853.665405,559.754333 900.480469,555.411072 
	C926.621277,552.985840 952.877136,551.799866 979.837097,550.221619 
	C982.067505,550.210510 983.541870,550.033264 985.016296,549.855957 
	C1000.033020,549.579468 1015.049683,549.302979 1030.904663,549.201294 
	C1040.151978,549.323181 1048.560913,549.270203 1056.969971,549.217285 
	C1064.016357,549.395325 1071.062744,549.573364 1078.857666,549.998169 
	C1082.067505,550.190979 1084.528809,550.136902 1086.989990,550.082886 
	C1092.694946,550.359436 1098.399780,550.635925 1104.778320,551.110229 
	C1106.298462,551.231873 1107.145020,551.155762 1107.991577,551.079651 
	C1132.887085,553.116699 1157.857300,554.500977 1182.660889,557.340637 
	C1221.783813,561.819702 1260.743774,567.558472 1299.250488,576.048035 
	C1357.972778,588.994507 1415.303711,606.159058 1469.933228,631.656189 
	C1497.785278,644.655518 1524.299072,659.928223 1549.631104,678.307129 
	C1550.388428,678.733032 1550.696411,678.850098 1551.050537,679.084106 
	C1551.180298,679.214844 1551.263794,679.228577 1551.347412,679.242310 
	C1551.208130,679.182068 1551.068970,679.121765 1550.990479,678.785400 
	C1550.820801,678.220459 1550.590332,677.931580 1550.359863,677.642700 
	C1541.766602,670.574341 1533.554810,662.971436 1524.517334,656.525757 
	C1472.054077,619.108582 1415.333496,589.337891 1356.273560,563.874756 
	C1310.459473,544.122437 1263.461182,527.731873 1215.288818,514.724976 
	C1213.588379,514.265869 1211.926758,513.662903 1209.259644,512.811951 
	C1216.148926,507.317596 1222.163330,502.355103 1228.404297,497.696411 
	C1229.529419,496.856598 1231.607910,497.009094 1233.211426,497.137543 
	C1262.353638,499.472382 1291.174194,503.358582 1319.883179,509.486420 
	C1373.972656,521.031616 1425.537842,539.342590 1475.430298,562.762451 
	C1514.130005,580.928345 1550.908813,602.473145 1585.912964,627.011353 
	C1588.229614,628.635315 1590.145020,631.243530 1591.480469,633.795044 
	C1618.407715,685.243103 1641.099243,738.571655 1661.560791,792.865356 
	C1698.131104,889.903198 1726.708008,989.252991 1745.260254,1091.291138 
	C1753.120361,1134.523193 1758.702393,1178.187134 1764.569458,1221.755737 
	C1767.046021,1240.145996 1767.735840,1258.787109 1768.956787,1277.332642 
	C1769.893677,1291.563965 1770.475220,1305.820679 1771.060791,1320.072510 
	C1771.769287,1337.311279 1772.517944,1354.553955 1772.764160,1371.801880 
	C1772.814453,1375.327881 1771.473267,1379.391357 1769.492798,1382.349731 
	C1746.839111,1416.187256 1718.477417,1444.682495 1686.426636,1469.566895 
	C1638.436157,1506.826904 1584.968506,1533.267212 1526.354614,1549.100098 
	C1508.147827,1554.018433 1489.749390,1558.583496 1471.164551,1561.647095 
	C1452.039673,1564.799805 1432.593750,1566.067749 1413.260620,1567.863892 
	C1405.185547,1568.614258 1397.038574,1568.811890 1388.925659,1568.788574 
	C1386.799683,1568.782593 1384.015747,1567.572998 1382.653687,1565.966553 
	C1356.361084,1534.958740 1330.232544,1503.812012 1304.087769,1472.679077 
	C1303.264771,1471.699097 1302.626953,1470.563599 1301.598999,1469.054565 
	C1310.556519,1466.258667 1319.155518,1463.767212 1327.627319,1460.899902 
	C1399.738037,1436.495117 1461.844238,1397.098022 1510.814087,1338.171265 
	C1515.912842,1332.035767 1520.350464,1325.350586 1525.375244,1318.411377 
	C1525.267578,1317.731201 1524.879272,1317.560059 1524.490967,1317.388916 
M507.813324,676.082886 
	C507.810211,675.855591 507.807098,675.628296 507.803955,675.401001 
	C507.511078,675.578369 507.218201,675.755798 506.506073,676.070374 
	C506.544312,676.303467 506.582550,676.536560 506.620728,676.769592 
	C506.862305,676.624634 507.103882,676.479675 507.813324,676.082886 
M1380.908813,1115.106445 
	C1380.644287,1110.739746 1380.379761,1106.373047 1380.316040,1101.619019 
	C1380.172729,1101.083374 1380.029541,1100.547852 1379.836426,1099.185059 
	C1375.426514,1065.676270 1362.056396,1036.399658 1337.226929,1013.226379 
	C1300.919434,979.340637 1258.356934,968.903442 1210.738525,983.251709 
	C1179.702271,992.603577 1155.874390,1012.404541 1138.976196,1039.930420 
	C1107.179810,1091.724121 1109.831299,1155.508057 1146.096313,1204.326416 
	C1169.210571,1235.442139 1200.747559,1253.025879 1239.291870,1256.812622 
	C1260.852173,1258.930908 1281.926514,1254.834473 1301.414062,1245.298462 
	C1347.782837,1222.608154 1372.843994,1184.575684 1380.159180,1133.658691 
	C1380.149292,1133.102173 1380.139282,1132.545776 1380.237793,1131.154785 
	C1380.452026,1126.766846 1380.666260,1122.378906 1381.145142,1117.641235 
	C1381.057129,1117.098267 1380.969116,1116.555176 1380.908813,1115.106445 
M655.309692,1143.166260 
	C661.171997,1173.077759 674.270264,1199.148315 696.302734,1220.492432 
	C717.726807,1241.247192 743.518799,1253.360596 772.874146,1256.743774 
	C795.396484,1259.339355 817.470764,1255.176514 837.861572,1245.098022 
	C885.850403,1221.379028 910.778687,1181.590698 916.241882,1129.130859 
	C919.088257,1101.798950 913.994080,1075.517334 901.293213,1051.180298 
	C879.588745,1009.590637 845.985474,983.629639 798.772705,978.031433 
	C743.990906,971.535645 690.547119,1002.913879 667.174622,1054.148560 
	C660.461731,1068.863892 655.504578,1084.093872 653.888123,1100.323242 
	C652.485962,1114.402588 652.057190,1128.405273 655.309692,1143.166260 
M535.473877,1315.472290 
	C535.473877,1315.472290 535.351562,1315.665161 535.351562,1315.665161 
	C535.351562,1315.665161 535.568237,1315.648193 535.473877,1315.472290 
M1526.432251,1315.594849 
	C1526.432251,1315.594849 1526.570190,1315.519165 1526.432251,1315.594849 
z"/>
<path fill="#CCD5F2" opacity="1.000000" stroke="none" 
	d="
M1056.609619,549.033203 
	C1048.560913,549.270203 1040.151978,549.323181 1031.373535,549.201172 
	C1039.419189,548.967224 1047.834106,548.908142 1056.609619,549.033203 
z"/>
<path fill="#CCD5F2" opacity="1.000000" stroke="none" 
	d="
M1086.660645,549.913330 
	C1084.528809,550.136902 1082.067505,550.190979 1079.290527,550.032593 
	C1081.426880,549.794678 1083.879028,549.769226 1086.660645,549.913330 
z"/>
<path fill="#CDD5F2" opacity="1.000000" stroke="none" 
	d="
M984.715637,549.734131 
	C983.541870,550.033264 982.067505,550.210510 980.301270,550.222107 
	C981.478027,549.908325 982.946472,549.760315 984.715637,549.734131 
z"/>
<path fill="#CCD5F2" opacity="1.000000" stroke="none" 
	d="
M1107.764893,550.948364 
	C1107.145020,551.155762 1106.298462,551.231873 1105.226807,551.160889 
	C1105.847290,550.948303 1106.692871,550.882751 1107.764893,550.948364 
z"/>
<path fill="#7289DA" opacity="1.000000" stroke="none" 
	d="
M655.247192,1142.744629 
	C652.057190,1128.405273 652.485962,1114.402588 653.888123,1100.323242 
	C655.504578,1084.093872 660.461731,1068.863892 667.174622,1054.148560 
	C690.547119,1002.913879 743.990906,971.535645 798.772705,978.031433 
	C845.985474,983.629639 879.588745,1009.590637 901.293213,1051.180298 
	C913.994080,1075.517334 919.088257,1101.798950 916.241882,1129.130859 
	C910.778687,1181.590698 885.850403,1221.379028 837.861572,1245.098022 
	C817.470764,1255.176514 795.396484,1259.339355 772.874146,1256.743774 
	C743.518799,1253.360596 717.726807,1241.247192 696.302734,1220.492432 
	C674.270264,1199.148315 661.171997,1173.077759 655.247192,1142.744629 
z"/>
<path fill="#7289DA" opacity="1.000000" stroke="none" 
	d="
M1380.114990,1102.006348 
	C1380.379761,1106.373047 1380.644287,1110.739746 1380.758301,1115.733887 
	C1380.698608,1116.904663 1380.789551,1117.447754 1380.880493,1117.990967 
	C1380.666260,1122.378906 1380.452026,1126.766846 1380.020020,1131.729492 
	C1379.824219,1132.866089 1379.846191,1133.428101 1379.868164,1133.989990 
	C1372.843994,1184.575684 1347.782837,1222.608154 1301.414062,1245.298462 
	C1281.926514,1254.834473 1260.852173,1258.930908 1239.291870,1256.812622 
	C1200.747559,1253.025879 1169.210571,1235.442139 1146.096313,1204.326416 
	C1109.831299,1155.508057 1107.179810,1091.724121 1138.976196,1039.930420 
	C1155.874390,1012.404541 1179.702271,992.603577 1210.738525,983.251709 
	C1258.356934,968.903442 1300.919434,979.340637 1337.226929,1013.226379 
	C1362.056396,1036.399658 1375.426514,1065.676270 1379.740479,1099.790039 
	C1379.801392,1100.932007 1379.958252,1101.469238 1380.114990,1102.006348 
z"/>
<path fill="#ACBAE9" opacity="1.000000" stroke="none" 
	d="
M1380.215576,1101.812744 
	C1379.958252,1101.469238 1379.801392,1100.932007 1379.765381,1100.203613 
	C1380.029541,1100.547852 1380.172729,1101.083374 1380.215576,1101.812744 
z"/>
<path fill="#ACBAE9" opacity="1.000000" stroke="none" 
	d="
M1381.012817,1117.816162 
	C1380.789551,1117.447754 1380.698608,1116.904663 1380.744385,1116.186768 
	C1380.969116,1116.555176 1381.057129,1117.098267 1381.012817,1117.816162 
z"/>
<path fill="#ACBAE9" opacity="1.000000" stroke="none" 
	d="
M1380.013672,1133.824341 
	C1379.846191,1133.428101 1379.824219,1132.866089 1379.965820,1132.146729 
	C1380.139282,1132.545776 1380.149292,1133.102173 1380.013672,1133.824341 
z"/>
<path fill="#7289DA" opacity="1.000000" stroke="none" 
	d="
M506.925323,675.933228 
	C507.218201,675.755798 507.511078,675.578369 507.803955,675.401001 
	C507.807098,675.628296 507.810211,675.855591 507.474426,676.108337 
	C507.135559,676.133789 506.925323,675.933228 506.925323,675.933228 
z"/>
<path fill="#7289DA" opacity="1.000000" stroke="none" 
	d="
M507.240479,676.234253 
	C507.103882,676.479675 506.862305,676.624634 506.620728,676.769653 
	C506.582550,676.536560 506.544312,676.303467 506.715698,676.001831 
	C506.925323,675.933228 507.135559,676.133789 507.240479,676.234253 
z"/>
<path fill="#7289DA" opacity="1.000000" stroke="none" 
	d="
M1550.231445,677.772766 
	C1550.590332,677.931580 1550.820801,678.220459 1551.010132,678.762573 
	C1550.968994,679.015808 1551.004272,678.967163 1551.004272,678.967163 
	C1550.696411,678.850098 1550.388428,678.733032 1549.963745,678.389893 
	C1549.846924,678.163757 1550.103027,677.902771 1550.231445,677.772766 
z"/>
<path fill="#7289DA" opacity="1.000000" stroke="none" 
	d="
M1550.949341,679.038635 
	C1551.068970,679.121765 1551.208130,679.182068 1551.347412,679.242310 
	C1551.263794,679.228577 1551.180298,679.214844 1551.050537,679.084106 
	C1551.004272,678.967163 1550.968994,679.015808 1550.949341,679.038635 
z"/>
<path fill="#7289DA" opacity="1.000000" stroke="none" 
	d="
M535.521057,1315.560303 
	C535.568237,1315.648193 535.351562,1315.665161 535.351562,1315.665161 
	C535.351562,1315.665161 535.473877,1315.472290 535.521057,1315.560303 
z"/>
<path fill="#7289DA" opacity="1.000000" stroke="none" 
	d="
M1526.501221,1315.557007 
	C1526.570190,1315.519165 1526.432251,1315.594849 1526.501221,1315.557007 
z"/>
<path fill="#7289DA" opacity="1.000000" stroke="none" 
	d="
M1524.681641,1317.609131 
	C1524.879272,1317.560059 1525.267578,1317.731201 1525.462891,1318.078857 
	C1525.137329,1318.113281 1525.004761,1317.971191 1524.681641,1317.609131 
z"/>
</svg>