<svg xmlns="http://www.w3.org/2000/svg" width="100.27000000000001" height="35" viewBox="0 0 100.27000000000001 35"><rect class="svg__rect" x="0" y="0" width="100.27000000000001" height="35" fill="#4253FF"/><rect class="svg__rect" x="100.27000000000001" y="0" width="0" height="35" fill="#389AD5"/><path class="svg__text" d="M15.60 22L13.63 13.47L15.10 13.47L16.43 19.88L18.06 13.47L19.30 13.47L20.91 19.89L22.22 13.47L23.69 13.47L21.72 22L20.31 22L18.68 15.77L17.02 22L15.60 22ZM33.34 22L27.76 22L27.76 13.47L33.30 13.47L33.30 14.66L29.25 14.66L29.25 17.02L32.75 17.02L32.75 18.19L29.25 18.19L29.25 20.82L33.34 20.82L33.34 22ZM40.65 22L37.54 22L37.54 13.47L40.46 13.47Q41.91 13.47 42.66 14.05Q43.42 14.63 43.42 15.78L43.42 15.78Q43.42 16.36 43.10 16.83Q42.79 17.30 42.18 17.56L42.18 17.56Q42.87 17.75 43.25 18.26Q43.63 18.78 43.63 19.51L43.63 19.51Q43.63 20.71 42.85 21.36Q42.08 22 40.65 22L40.65 22ZM39.02 18.15L39.02 20.82L40.67 20.82Q41.36 20.82 41.76 20.47Q42.15 20.13 42.15 19.51L42.15 19.51Q42.15 18.18 40.79 18.15L40.79 18.15L39.02 18.15ZM39.02 14.66L39.02 17.06L40.47 17.06Q41.16 17.06 41.55 16.75Q41.94 16.43 41.94 15.86L41.94 15.86Q41.94 15.23 41.58 14.95Q41.22 14.66 40.46 14.66L40.46 14.66L39.02 14.66ZM49.58 22L48.10 22L48.10 13.47L53.52 13.47L53.52 14.66L49.58 14.66L49.58 17.20L53.01 17.20L53.01 18.38L49.58 18.38L49.58 22ZM63.03 22L57.68 22L57.68 13.47L59.16 13.47L59.16 20.82L63.03 20.82L63.03 22ZM66.89 18.00L66.89 18.00L66.89 17.52Q66.89 16.28 67.33 15.32Q67.77 14.37 68.58 13.86Q69.38 13.35 70.43 13.35Q71.47 13.35 72.27 13.85Q73.08 14.35 73.52 15.29Q73.96 16.23 73.97 17.48L73.97 17.48L73.97 17.96Q73.97 19.21 73.53 20.16Q73.10 21.10 72.29 21.61Q71.49 22.12 70.44 22.12L70.44 22.12Q69.40 22.12 68.59 21.61Q67.78 21.10 67.34 20.17Q66.89 19.23 66.89 18.00ZM68.37 17.46L68.37 17.96Q68.37 19.36 68.92 20.13Q69.47 20.90 70.44 20.90L70.44 20.90Q71.42 20.90 71.95 20.15Q72.48 19.40 72.48 17.96L72.48 17.96L72.48 17.51Q72.48 16.09 71.95 15.34Q71.41 14.58 70.43 14.58L70.43 14.58Q69.47 14.58 68.92 15.33Q68.38 16.09 68.37 17.46L68.37 17.46ZM79.81 22L77.84 13.47L79.31 13.47L80.64 19.88L82.27 13.47L83.51 13.47L85.12 19.89L86.43 13.47L87.90 13.47L85.94 22L84.52 22L82.89 15.77L81.24 22L79.81 22Z" fill="#FFFFFF"/><path class="svg__text" d="" fill="#FFFFFF" x="113.27000000000001"/></svg>